<svg width="640" height="400" viewBox="0 0 640 400" fill="none" xmlns="http://www.w3.org/2000/svg">
  <rect width="640" height="400" rx="24" fill="url(#bg)"/>
  <g filter="url(#panel)">
    <rect x="40" y="48" width="560" height="304" rx="18" fill="#FFFFFF"/>
    <rect x="64" y="84" width="160" height="24" rx="6" fill="#E2E8F0"/>
    <rect x="64" y="124" width="220" height="18" rx="4" fill="#CBD5F5"/>
    <rect x="64" y="152" width="180" height="12" rx="4" fill="#E2E8F0"/>
    <rect x="64" y="208" width="120" height="24" rx="6" fill="#38BDF8" fill-opacity="0.85"/>
    <rect x="212" y="208" width="120" height="24" rx="6" fill="#1D4ED8" fill-opacity="0.7"/>
    <rect x="360" y="208" width="120" height="24" rx="6" fill="#6366F1" fill-opacity="0.6"/>
    <rect x="64" y="260" width="240" height="16" rx="4" fill="#E2E8F0"/>
    <rect x="64" y="292" width="320" height="16" rx="4" fill="#CBD5F5"/>
    <rect x="320" y="84" width="240" height="180" rx="12" fill="#F1F5F9"/>
    <path d="M340 236C360 208 384 192 408 200C432 208 452 236 476 244C500 252 520 240 540 212" stroke="#38BDF8" stroke-width="8" stroke-linecap="round" fill="none"/>
    <circle cx="408" cy="202" r="10" fill="#38BDF8"/>
    <circle cx="476" cy="244" r="10" fill="#1D4ED8"/>
    <circle cx="540" cy="212" r="10" fill="#0EA5E9"/>
  </g>
  <defs>
    <linearGradient id="bg" x1="0" y1="0" x2="640" y2="400" gradientUnits="userSpaceOnUse">
      <stop offset="0" stop-color="#0F172A"/>
      <stop offset="1" stop-color="#312E81"/>
    </linearGradient>
    <filter id="panel" x="32" y="40" width="576" height="320" filterUnits="userSpaceOnUse" color-interpolation-filters="sRGB">
      <feFlood flood-opacity="0" result="BackgroundImageFix"/>
      <feColorMatrix in="SourceAlpha" type="matrix" values="0 0 0 0 0 0 0 0 0 0 0 0 0 0 0 0 0 0 127 0" result="hardAlpha"/>
      <feOffset dy="4"/>
      <feGaussianBlur stdDeviation="8"/>
      <feColorMatrix type="matrix" values="0 0 0 0 0.035 0 0 0 0 0.086 0 0 0 0 0.2 0 0 0 0.12 0"/>
      <feBlend mode="normal" in2="BackgroundImageFix" result="effect1_dropShadow"/>
      <feBlend mode="normal" in="SourceGraphic" in2="effect1_dropShadow" result="shape"/>
    </filter>
  </defs>
</svg>
